<svg width="42" height="64" viewBox="0 0 42 64" fill="none" xmlns="http://www.w3.org/2000/svg">
<path d="M3.42884 17.3063L40.8373 38.5375C42.3876 39.4128 42.3876 41.588 40.8373 42.4633L3.42884 63.6945C1.8786 64.5634 0.00131061 63.4757 0.00131061 61.7317V19.2112C-0.0575592 17.5251 1.8786 16.4375 3.42884 17.3063Z" fill="#EC6525"/>
<path d="M19.7002 0.305667L2.12409 10.5884C0.625304 11.448 0.625304 13.6064 2.12409 14.466L19.7002 24.6978C21.1926 25.5574 23 24.4813 23 22.7559V2.19031C23 0.522146 21.1926 -0.560251 19.7002 0.305667Z" fill="#656463"/>
<path d="M38.5516 46.2986L26.1672 53.1024C24.6109 53.9443 24.6109 56.0521 26.1672 56.9002L38.5516 63.704C40.1078 64.5459 41.999 63.492 41.999 61.802V48.2006C42.0515 46.5106 40.1078 45.4505 38.5516 46.2986Z" fill="#DC3925"/>
</svg>
